<?xml version="1.0" standalone="no"?>
<!DOCTYPE svg PUBLIC "-//W3C//DTD SVG 20010904//EN"
 "http://www.w3.org/TR/2001/REC-SVG-20010904/DTD/svg10.dtd">
<svg version="1.0" xmlns="http://www.w3.org/2000/svg"
 width="608.000000pt" height="608.000000pt" viewBox="0 0 608.000000 608.000000"
 preserveAspectRatio="xMidYMid meet">
<metadata>
Created by potrace 1.14, written by Peter Selinger 2001-2017
</metadata>
<g transform="translate(0.000000,608.000000) scale(0.100000,-0.100000)"
fill="#000000" stroke="none">
<path d="M1105 5825 c-315 -58 -572 -234 -734 -503 -63 -105 -105 -216 -131
-344 -20 -99 -20 -126 -17 -1982 3 -2075 -2 -1900 64 -2086 26 -74 115 -239
135 -251 6 -4 7 -12 4 -18 -4 -6 -4 -10 1 -9 5 2 26 -17 48 -41 57 -64 123
-125 175 -164 52 -38 188 -118 210 -122 8 -2 32 -11 53 -19 48 -21 186 -53
257 -60 67 -7 3655 -7 3725 0 68 7 221 43 253 60 15 8 32 14 38 14 6 0 49 21
95 46 291 161 485 429 544 754 11 62 14 400 14 1925 0 1183 -4 1870 -10 1905
-6 30 -12 69 -15 85 -7 40 -52 170 -76 220 -23 46 -89 158 -98 165 -3 3 -21
25 -40 50 -33 43 -84 93 -160 159 -81 70 -300 181 -385 194 -16 3 -37 8 -45
11 -8 3 -31 8 -50 13 -19 4 -879 8 -1910 9 -1495 2 -1889 -1 -1945 -11z"/>
</g>
</svg>
